<svg width="267mm" height="119mm" viewBox="0 0 267 119" xmlns="http://www.w3.org/2000/svg">
  <g id="outlines" fill="none" stroke="black" stroke-width="0.1" stroke-linejoing="miter">
    <polygon points="11,0 64,0 75,8.5 64,17 11,17 0,8.5" />
    <polygon points="139,0 192,0 203,8.5 192,17 139,17 128,8.5" />
    <polygon points="75,8.5 128,8.5 139,17 128,25.5 75,25.5 64,17" />
    <polygon points="203,8.5 256,8.5 267,17 256,25.5 203,25.5 192,17" />
    <polygon points="11,17 64,17 75,25.5 64,34 11,34 0,25.5" />
    <polygon points="139,17 192,17 203,25.5 192,34 139,34 128,25.5" />
    <polygon points="75,25.5 128,25.5 139,34 128,42.5 75,42.5 64,34" />
    <polygon points="203,25.5 256,25.5 267,34 256,42.5 203,42.5 192,34" />
    <polygon points="11,34 64,34 75,42.5 64,51 11,51 0,42.5" />
    <polygon points="139,34 192,34 203,42.5 192,51 139,51 128,42.5" />
    <polygon points="75,42.5 128,42.5 139,51 128,59.5 75,59.5 64,51" />
    <polygon points="203,42.5 256,42.5 267,51 256,59.5 203,59.5 192,51" />
    <polygon points="11,51 64,51 75,59.5 64,68 11,68 0,59.5" />
    <polygon points="139,51 192,51 203,59.5 192,68 139,68 128,59.5" />
    <polygon points="75,59.5 128,59.5 139,68 128,76.5 75,76.5 64,68" />
    <polygon points="203,59.5 256,59.5 267,68 256,76.5 203,76.5 192,68" />
    <polygon points="11,68 64,68 75,76.5 64,85 11,85 0,76.5" />
    <polygon points="139,68 192,68 203,76.5 192,85 139,85 128,76.5" />
    <polygon points="75,76.5 128,76.5 139,85 128,93.5 75,93.5 64,85" />
    <polygon points="203,76.5 256,76.5 267,85 256,93.5 203,93.5 192,85" />
    <polygon points="11,85 64,85 75,93.5 64,102 11,102 0,93.5" />
    <polygon points="139,85 192,85 203,93.5 192,102 139,102 128,93.5" />
    <polygon points="75,93.5 128,93.5 139,102 128,110.5 75,110.5 64,102" />
    <polygon points="203,93.5 256,93.5 267,102 256,110.5 203,110.5 192,102" />
    <polygon points="11,102 64,102 75,110.5 64,119 11,119 0,110.5" />
    <polygon points="139,102 192,102 203,110.5 192,119 139,119 128,110.5" />
  </g>
</svg>
